<svg xmlns="http://www.w3.org/2000/svg" viewBox="0 0 64 64" role="img" aria-label="Impetuous Order">
  <defs>
    <radialGradient id="impetuous-fill" cx="50%" cy="38%" r="62%">
      <stop offset="0" stop-color="#e53935"/>
      <stop offset="1" stop-color="#8f1616"/>
    </radialGradient>
  </defs>
  <circle cx="32" cy="32" r="29" fill="url(#impetuous-fill)" stroke="#d9dde5" stroke-width="5"/>
  <circle cx="32" cy="32" r="24" fill="none" stroke="rgba(255,255,255,0.32)" stroke-width="2"/>
  <path d="M31 10c9 10 13 18 13 27 0 10-6 16-12 16-8 0-14-7-12-16 1-5 5-9 8-14 2 5 3 8 3 11 5-6 6-14 0-24Z" fill="#fff"/>
  <path d="M31 35c4 5 5 8 4 12-1 3-3 5-6 5-4 0-7-3-7-7 0-4 3-7 6-11 1 4 2 6 3 1Z" fill="#e53935"/>
</svg>
