<svg xmlns="http://www.w3.org/2000/svg" viewBox="0 0 180 220" role="img" aria-labelledby="title desc">
  <title id="title">Lobo monochrome crest</title>
  <desc id="desc">Single color Lobo Infinity League crest.</desc>
  <path fill="#EEF6FA" d="M90 6 166 50v88l-76 76-76-76V50L90 6Zm0 18L30 60v70l60 60 60-60V60L90 24Z"/>
  <path fill="#EEF6FA" d="m45 76 39-17-13 33 19-12 19 12-13-33 39 17-15 51-30 30-30-30-15-51Z"/>
  <path fill="#05080C" d="m61 92 20 12-23 12 3-24Zm58 0-20 12 23 12-3-24ZM75 128h30l-15 21-15-21Z"/>
  <path fill="#EEF6FA" d="M53 169h74v9H53z"/>
</svg>
