<svg xmlns="http://www.w3.org/2000/svg" viewBox="0 0 320 360" role="img" aria-labelledby="title desc">
  <title id="title">Lobo Infinity League crest</title>
  <desc id="desc">Original hexagonal mercenary sci-fi tournament crest.</desc>
  <defs>
    <linearGradient id="edge" x1="35" x2="285" y1="18" y2="336" gradientUnits="userSpaceOnUse">
      <stop offset="0" stop-color="#8BE9FF"/>
      <stop offset=".44" stop-color="#C1121F"/>
      <stop offset="1" stop-color="#F3B23E"/>
    </linearGradient>
    <linearGradient id="armor" x1="82" x2="238" y1="44" y2="314" gradientUnits="userSpaceOnUse">
      <stop offset="0" stop-color="#2E3B4C"/>
      <stop offset=".52" stop-color="#121B25"/>
      <stop offset="1" stop-color="#070A0F"/>
    </linearGradient>
    <pattern id="microgrid" width="18" height="18" patternUnits="userSpaceOnUse">
      <path d="M18 0H0v18" fill="none" stroke="#4CC9F0" stroke-opacity=".16" stroke-width="1"/>
    </pattern>
  </defs>
  <path fill="#030507" d="M160 5 300 85v158L160 355 20 243V85L160 5Z"/>
  <path fill="url(#edge)" d="M160 17 288 91v146L160 339 32 237V91L160 17Z"/>
  <path fill="url(#armor)" d="M160 34 272 99v130L160 320 48 229V99L160 34Z"/>
  <path fill="url(#microgrid)" opacity=".7" d="M160 48 257 105v117l-97 79-97-79V105l97-57Z"/>
  <path fill="none" stroke="#4CC9F0" stroke-opacity=".48" stroke-width="4" d="M160 55 248 107v108l-88 72-88-72V107l88-52Z"/>
  <path fill="#070C12" stroke="#4C5A69" stroke-width="3" d="M88 116 119 78h82l31 38-16 88-56 53-56-53-16-88Z"/>
  <path fill="#EAF4FA" d="m96 117 56-25-19 47 27-17 27 17-19-47 56 25-21 72-43 42-43-42-21-72Z"/>
  <path fill="#121A23" d="m116 139 28 17-32 17 4-34Zm88 0-28 17 32 17-4-34ZM138 189h44l-22 29-22-29Z"/>
  <path fill="#C1121F" d="m145 163 15-11 15 11-15 11-15-11Z"/>
  <path fill="#4CC9F0" d="M76 62h42v10H76zm126 0h42v10h-42zM91 266h138v15H91z"/>
  <path fill="#F3B23E" d="M121 292h78v10h-78z"/>
  <path fill="none" stroke="#C1121F" stroke-opacity=".76" stroke-width="6" d="M61 95v122m198-122v122"/>
  <text x="160" y="278" fill="#05080C" font-family="Arial, sans-serif" font-size="16" font-weight="900" letter-spacing="4.6" text-anchor="middle">LOBO</text>
  <text x="160" y="302" fill="#EAF4FA" font-family="Arial, sans-serif" font-size="10" font-weight="900" letter-spacing="3.4" text-anchor="middle">INFINITY LEAGUE</text>
</svg>
